<?xml version="1.0" encoding="UTF-8" standalone="no"?>
<!DOCTYPE svg PUBLIC "-//W3C//DTD SVG 20010904//EN"
              "http://www.w3.org/TR/2001/REC-SVG-20010904/DTD/svg10.dtd">

<svg xmlns="http://www.w3.org/2000/svg"
     width="5.9375in" height="5.83333in"
     viewBox="0 0 570 560">
  <path id="Selection"
        fill="white" stroke="none" stroke-width="1"
        d="M 263.00,0.21
           C 263.00,0.21 293.00,0.21 293.00,0.21
             293.00,0.21 303.00,0.91 303.00,0.91
             323.89,2.37 344.97,5.55 365.00,11.81
             436.96,34.30 498.22,82.15 535.67,148.00
             556.00,183.76 568.94,234.89 569.00,276.00
             569.00,276.00 569.92,289.00 569.92,289.00
             569.92,289.00 569.00,301.00 569.00,301.00
             569.00,301.00 569.00,305.00 569.00,305.00
             569.00,305.00 567.13,323.00 567.13,323.00
             563.26,350.85 557.48,375.25 545.69,401.00
             521.80,453.18 483.17,495.30 433.00,523.14
             403.44,539.54 369.15,549.49 336.00,555.25
             324.20,557.30 308.84,559.98 297.00,560.00
             297.00,560.00 274.00,560.00 274.00,560.00
             274.00,560.00 264.00,559.09 264.00,559.09
             236.38,557.16 209.04,552.49 183.00,542.81
             183.00,542.81 174.00,539.83 174.00,539.83
             148.67,530.03 119.57,512.34 99.00,494.70
             99.00,494.70 87.04,483.09 87.04,483.09
             64.05,460.87 43.83,435.69 29.44,407.00
             8.15,364.58 -0.07,322.11 0.00,275.00
             0.02,260.85 3.32,232.90 6.42,219.00
             12.30,192.73 24.81,162.29 38.23,139.00
             63.47,95.19 108.33,53.82 153.00,30.32
             167.48,22.70 183.40,16.88 199.00,12.02
             215.18,7.00 235.14,3.31 252.00,1.28
             252.00,1.28 263.00,0.21 263.00,0.21 Z
           M 328.00,22.36
           C 320.02,24.63 318.10,29.23 318.00,37.00
             317.70,61.99 320.28,81.51 313.29,106.00
             310.22,116.76 305.52,128.68 296.00,135.35
             289.30,140.05 277.97,142.12 270.00,143.61
             257.91,145.88 245.92,148.76 236.00,156.53
             230.47,160.86 225.95,167.69 226.20,175.00
             226.37,180.13 230.49,185.83 236.00,185.71
             244.21,185.52 249.17,175.42 260.00,171.23
             271.72,166.70 283.13,165.63 296.00,159.19
             324.02,145.18 330.42,123.60 335.58,95.00
             335.58,95.00 339.09,60.00 339.09,60.00
             339.09,60.00 341.00,35.00 341.00,35.00
             340.88,26.48 336.87,21.77 328.00,22.36 Z
           M 240.00,23.43
           C 228.00,28.20 231.84,41.55 235.22,51.00
             236.54,54.70 238.65,60.74 240.53,64.00
             245.73,73.06 257.34,83.48 266.00,89.33
             271.35,92.94 279.27,98.03 286.00,95.99
             293.67,93.67 296.73,83.85 293.31,77.00
             288.03,66.41 275.40,65.64 267.21,57.68
             254.46,45.27 263.44,19.93 240.00,23.43 Z
           M 160.00,46.33
           C 157.81,46.85 156.02,47.28 154.02,48.41
             143.15,54.56 148.60,66.72 150.39,76.00
             152.14,85.10 154.65,96.29 167.00,93.60
             176.11,91.62 178.38,81.86 179.75,74.00
             181.48,64.07 183.36,48.74 170.00,46.33
             166.81,45.75 163.21,45.97 160.00,46.33 Z
           M 388.00,46.31
           C 371.73,50.39 378.50,64.49 377.47,76.00
             376.87,82.74 373.51,88.70 375.43,96.00
             377.17,102.64 384.27,107.07 391.00,105.60
             399.94,103.65 402.13,91.65 403.88,84.00
             403.88,84.00 405.74,75.00 405.74,75.00
             408.50,63.66 412.76,48.92 396.00,46.31
             393.15,45.86 390.83,46.01 388.00,46.31 Z
           M 446.00,89.33
           C 439.93,90.84 436.43,93.51 435.33,100.00
             435.33,100.00 436.00,118.00 436.00,118.00
             435.98,132.18 432.22,141.65 425.74,154.00
             412.69,178.87 386.59,197.96 358.00,198.00
             358.00,198.00 339.00,197.04 339.00,197.04
             339.00,197.04 331.00,198.04 331.00,198.04
             331.00,198.04 323.00,198.04 323.00,198.04
             296.08,200.74 265.62,209.68 242.00,222.86
             222.08,233.97 193.83,258.51 170.00,256.82
             152.84,255.60 136.94,248.78 127.10,234.00
             121.44,225.50 118.00,212.88 110.67,204.00
             98.20,188.89 77.26,181.23 58.00,181.00
             49.59,180.91 37.54,179.84 38.07,192.00
             38.15,193.85 38.45,195.34 39.31,197.00
             43.00,204.05 50.02,204.27 57.00,205.05
             67.49,206.22 78.69,207.12 88.00,212.53
             100.17,219.59 102.86,234.95 110.10,246.00
             121.02,262.68 147.02,276.76 167.00,277.00
             176.13,277.10 183.10,276.90 192.00,274.23
             209.60,268.95 223.04,257.28 238.00,247.36
             248.30,240.52 262.32,233.85 274.00,229.69
             291.67,223.40 319.28,218.03 338.00,218.00
             338.00,218.00 354.00,218.00 354.00,218.00
             374.02,217.97 398.50,210.76 414.00,197.86
             439.03,177.02 453.37,153.05 458.72,121.00
             460.66,109.34 464.14,87.76 446.00,89.33 Z
           M 216.00,93.43
           C 208.51,94.96 203.55,99.81 198.01,104.72
             189.96,111.85 168.43,130.22 163.95,138.00
             156.63,150.71 164.36,164.04 174.00,162.62
             180.22,161.70 185.45,152.65 189.43,148.00
             189.43,148.00 215.00,123.01 215.00,123.01
             218.12,119.97 222.62,116.57 224.85,112.99
             229.87,104.94 226.48,93.91 216.00,93.43 Z
           M 80.00,115.20
           C 72.19,117.97 67.32,126.97 73.39,133.87
             77.91,139.00 87.48,138.95 94.00,140.63
             102.70,142.86 112.65,148.56 118.82,155.09
             126.04,162.73 127.38,174.10 129.65,184.00
             134.03,203.08 138.33,219.27 157.00,229.11
             161.71,231.59 166.69,232.86 172.00,232.99
             181.18,233.20 193.19,230.42 199.89,223.82
             205.44,218.35 205.09,208.96 197.96,205.17
             190.87,201.41 183.45,207.41 177.00,209.21
             168.63,211.55 160.42,206.68 155.64,200.00
             147.08,188.06 149.01,172.19 144.64,159.00
             137.70,138.01 110.67,115.10 88.00,115.20
             88.00,115.20 80.00,115.20 80.00,115.20 Z
           M 377.00,129.51
           C 361.76,131.54 369.11,145.71 360.15,159.00
             356.42,164.53 350.46,166.81 350.19,173.00
             349.91,179.20 355.55,182.05 361.00,181.95
             376.51,181.65 384.84,161.03 386.70,148.00
             387.89,139.68 386.96,130.86 377.00,129.51 Z
           M 513.00,169.33
           C 498.18,173.01 503.87,185.22 504.00,196.00
             504.22,215.20 494.81,233.40 480.00,245.54
             466.79,256.37 450.89,261.76 434.00,263.08
             434.00,263.08 427.00,263.63 427.00,263.63
             427.00,263.63 379.00,257.00 379.00,257.00
             365.18,256.98 353.04,259.28 341.00,266.45
             328.19,274.09 317.03,286.14 313.50,301.00
             311.82,308.09 311.79,317.79 321.01,319.38
             333.70,321.57 335.85,305.38 341.53,298.00
             351.91,284.50 363.27,278.92 380.00,279.00
             380.00,279.00 407.00,282.57 407.00,282.57
             407.00,282.57 416.00,283.17 416.00,283.17
             419.16,283.47 420.58,284.06 424.00,283.82
             453.24,281.74 476.98,277.82 498.91,255.91
             516.36,238.49 525.13,218.41 526.91,194.00
             526.91,194.00 527.74,183.00 527.74,183.00
             527.39,174.22 521.91,168.57 513.00,169.33 Z
           M 458.00,205.43
           C 452.17,207.72 441.39,218.15 438.99,224.09
             436.35,230.65 441.37,237.42 448.00,238.57
             457.14,240.14 468.71,226.03 470.47,218.00
             472.47,208.86 466.75,204.13 458.00,205.43 Z
           M 45.83,230.43
           C 24.97,234.02 39.40,262.48 55.00,260.80
             64.88,259.74 68.27,249.31 64.64,241.04
             60.96,232.66 54.57,229.72 45.83,230.43 Z
           M 264.00,263.51
           C 259.19,265.56 252.10,272.45 247.00,275.91
             247.00,275.91 222.00,293.00 222.00,293.00
             219.21,294.97 212.57,299.21 210.65,301.47
             204.14,309.12 208.36,322.91 218.00,321.03
             221.99,320.25 230.34,313.60 234.00,311.00
             234.00,311.00 260.00,292.13 260.00,292.13
             263.32,289.64 270.20,284.80 272.61,281.91
             279.60,273.52 276.44,261.60 264.00,263.51 Z
           M 72.00,288.28
           C 57.92,290.32 44.39,293.23 35.76,306.00
             31.16,312.81 28.73,325.11 39.00,328.23
             46.88,330.63 52.64,319.45 58.01,315.65
             63.48,311.78 83.22,307.82 90.00,308.32
             105.00,309.45 112.03,311.97 126.00,316.67
             135.34,319.81 146.08,323.88 156.00,324.00
             163.16,324.08 175.22,325.27 180.43,319.61
             185.26,314.36 184.16,299.11 169.00,300.28
             161.32,300.73 153.69,301.77 146.00,300.28
             146.00,300.28 112.00,290.01 112.00,290.01
             101.88,287.82 82.38,287.32 72.00,288.28 Z
           M 483.00,289.34
           C 470.91,292.61 468.12,307.35 476.33,315.79
             480.60,320.18 487.17,320.93 493.00,321.00
             499.01,321.07 505.68,321.32 510.98,318.00
             519.42,312.72 520.31,299.35 512.61,292.85
             507.26,288.33 489.91,288.54 483.00,289.34 Z
           M 400.00,313.30
           C 388.52,315.54 372.77,324.34 374.11,338.00
             374.25,339.43 374.49,340.68 375.17,341.96
             380.97,352.84 392.46,342.49 399.00,338.88
             401.34,337.59 403.26,336.64 406.00,337.17
             415.78,339.09 428.83,352.36 433.19,361.00
             433.19,361.00 449.26,399.00 449.26,399.00
             452.71,405.69 459.10,413.52 459.12,421.00
             459.16,430.84 450.98,440.77 450.19,451.00
             449.62,458.26 454.34,464.41 462.00,463.66
             478.01,462.10 478.65,443.54 480.19,431.00
             480.65,425.59 481.49,423.62 480.19,418.00
             477.51,404.24 467.54,389.71 460.89,377.00
             460.89,377.00 448.19,346.00 448.19,346.00
             439.73,328.98 420.24,311.34 400.00,313.30 Z
           M 283.00,316.29
           C 258.41,320.35 236.62,330.68 214.00,340.69
             214.00,340.69 175.00,357.31 175.00,357.31
             141.53,375.57 113.06,404.65 113.00,445.00
             112.97,465.58 113.59,478.41 131.00,492.53
             136.75,497.20 148.13,502.47 154.77,496.57
             156.85,494.73 157.61,492.69 157.85,490.00
             158.03,488.72 157.98,486.28 157.85,485.00
             156.02,471.40 143.75,476.23 137.64,468.81
             132.85,463.01 132.92,455.08 133.00,448.00
             133.09,440.75 134.74,433.85 137.00,427.00
             151.57,382.91 192.09,368.89 231.00,352.58
             251.10,344.15 273.91,334.56 296.00,339.51
             302.30,340.92 309.33,344.23 315.00,347.31
             320.89,350.50 325.20,353.19 329.87,358.08
             344.85,373.73 355.97,392.80 356.00,415.00
             356.04,439.36 350.35,466.73 362.64,489.00
             367.73,498.21 380.50,509.38 391.00,511.61
             399.61,513.45 410.14,509.65 408.74,499.00
             407.19,487.31 390.25,488.93 381.80,477.00
             371.67,462.70 375.98,444.98 376.00,429.00
             376.02,417.52 375.83,404.17 373.10,393.00
             369.78,379.40 355.70,354.79 345.96,345.04
             341.52,340.60 334.23,335.26 329.00,331.59
             314.60,321.50 300.96,314.59 283.00,316.29 Z
           M 486.00,356.00
           C 488.10,359.15 490.29,359.37 494.00,359.68
             502.52,360.37 520.81,356.40 521.85,346.00
             522.04,344.09 521.76,341.80 520.83,340.10
             517.08,333.34 509.12,335.51 503.00,336.42
             495.53,337.53 479.99,339.15 481.38,350.00
             481.68,352.32 483.01,354.89 484.00,357.00
             484.00,357.00 486.00,356.00 486.00,356.00 Z
           M 62.00,341.65
           C 47.64,343.28 43.22,359.62 42.74,372.00
             42.10,389.01 48.57,405.42 59.95,417.99
             64.44,422.94 69.76,428.94 77.00,428.91
             84.35,428.89 91.07,421.81 88.51,414.30
             86.73,409.06 77.47,405.88 70.27,397.00
             63.58,388.76 60.92,373.12 63.94,363.00
             65.53,357.68 68.47,356.21 69.57,352.00
             71.24,345.62 68.00,342.49 62.00,341.65 Z
           M 104.00,352.38
           C 98.80,353.00 94.79,353.87 92.17,359.00
             88.18,366.84 93.84,378.05 103.00,377.86
             117.58,377.57 120.89,352.95 104.00,352.38 Z
           M 275.00,379.00
           C 275.00,379.00 286.00,407.00 286.00,407.00
             286.92,409.35 289.32,414.83 289.62,417.09
             289.61,419.74 288.18,424.46 289.62,430.00
             294.11,444.93 312.60,441.71 315.44,431.00
             318.70,418.73 310.83,415.71 308.31,410.08
             308.31,410.08 306.55,402.00 306.55,402.00
             306.55,402.00 297.83,376.00 297.83,376.00
             296.40,371.85 294.65,366.32 290.90,363.74
             288.05,361.79 284.31,361.93 281.00,362.01
             276.09,362.13 268.61,363.92 265.60,368.13
             262.63,372.29 264.57,381.41 275.00,379.00 Z
           M 405.00,369.33
           C 387.88,373.60 391.62,399.49 409.00,396.79
             418.78,395.27 423.29,380.50 417.35,373.21
             414.05,369.16 409.79,368.84 405.00,369.33 Z
           M 190.00,385.51
           C 181.52,388.93 177.03,398.51 184.34,405.29
             192.16,412.55 208.40,407.65 218.67,419.09
             227.09,428.46 225.57,439.63 223.39,451.00
             219.10,473.36 202.31,492.80 202.00,519.00
             201.96,522.79 201.66,527.55 203.45,530.96
             206.31,536.39 214.59,539.46 219.36,534.57
             222.68,531.18 223.09,525.46 223.73,521.00
             225.34,509.85 225.24,508.20 228.59,497.00
             228.59,497.00 236.14,478.00 236.14,478.00
             245.20,452.49 252.07,419.71 229.00,399.18
             225.13,395.75 218.74,391.79 214.00,389.67
             205.96,386.07 198.84,383.95 190.00,385.51 Z
           M 175.00,438.33
           C 170.28,439.46 165.87,441.17 163.85,446.02
             160.52,454.03 167.28,466.25 176.00,466.94
             192.80,468.28 194.13,446.61 186.79,440.51
             183.41,437.71 179.09,437.89 175.00,438.33 Z
           M 283.00,474.40
           C 273.10,477.06 273.39,485.49 272.28,494.00
             271.31,501.47 269.55,512.07 273.10,518.99
             275.08,522.86 281.64,529.17 285.01,532.13
             289.03,535.65 294.24,540.34 300.00,539.63
             308.82,538.54 312.62,528.47 307.43,522.21
             304.27,518.40 295.74,514.31 293.93,511.73
             292.14,509.17 292.04,505.02 292.00,502.00
             291.95,497.18 292.80,481.60 290.83,478.19
             288.94,474.94 286.41,474.42 283.00,474.40 Z" />
</svg>
