<?xml version="1.0" encoding="UTF-8" standalone="no"?>
<!DOCTYPE svg PUBLIC "-//W3C//DTD SVG 20010904//EN"
              "http://www.w3.org/TR/2001/REC-SVG-20010904/DTD/svg10.dtd">

<svg xmlns="http://www.w3.org/2000/svg"
     width="5.9375in" height="5.83333in"
     viewBox="0 0 570 560">
     <path id="white"
        fill="#ffffff" stroke="none" stroke-width="1"
        d="M 241.00,22.53
           C 243.41,22.19 244.53,21.97 247.00,22.53
             261.04,25.77 258.77,40.54 261.13,47.00
             262.43,50.56 265.41,54.95 268.18,57.54
             276.67,65.45 288.50,65.96 293.55,76.00
             296.72,82.31 295.50,98.07 281.00,96.89
             275.08,96.41 267.76,91.68 263.00,88.25
             247.91,77.40 240.49,68.46 234.67,51.00
             231.09,40.29 226.38,27.21 241.00,22.53 Z
           M 326.00,22.57
           C 332.95,21.33 340.31,22.92 341.77,31.00
             342.53,35.17 340.66,50.86 340.17,56.00
             340.17,56.00 334.99,102.00 334.99,102.00
             329.04,129.46 321.15,148.25 294.00,160.69
             294.00,160.69 260.00,171.93 260.00,171.93
             249.20,176.33 245.95,184.93 237.00,186.23
             230.62,187.15 226.42,181.88 225.80,176.00
             225.10,169.44 229.22,161.55 234.04,157.33
             243.94,148.66 258.41,145.23 271.00,142.80
             278.36,141.38 287.59,139.94 294.00,135.87
             303.77,129.67 308.60,119.64 311.97,109.00
             317.37,91.98 318.03,79.57 318.00,62.00
             318.00,62.00 317.00,40.00 317.00,40.00
             317.10,32.04 317.82,25.80 326.00,22.57 Z
           M 164.00,45.44
           C 184.47,43.79 183.56,63.84 179.84,78.00
             177.94,85.23 175.41,92.48 167.00,93.79
             152.56,96.04 151.45,84.46 149.12,74.00
             147.30,65.85 144.14,53.46 153.09,48.14
             155.79,46.54 160.84,45.94 164.00,45.44 Z
           M 390.00,45.39
           C 391.64,45.31 392.30,45.18 394.00,45.39
             395.52,45.46 398.57,46.10 400.00,46.61
             412.86,51.22 408.99,64.10 406.65,74.00
             406.65,74.00 404.00,86.00 404.00,86.00
             402.80,90.58 400.65,99.41 397.58,102.85
             394.62,106.19 391.13,106.13 387.00,105.98
             382.37,105.82 379.88,104.79 376.90,100.91
             371.02,92.38 375.61,84.89 376.90,77.00
             377.76,69.36 371.82,53.07 383.02,47.31
             385.08,46.25 387.73,45.86 390.00,45.39 Z
           M 443.00,89.65
           C 454.88,87.19 460.84,91.64 461.00,104.00
             461.25,123.40 453.82,148.58 443.58,165.00
             426.87,191.78 405.43,210.23 374.00,216.55
             364.29,218.51 358.67,217.98 349.00,218.00
             349.00,218.00 329.00,219.00 329.00,219.00
             303.92,219.30 267.54,230.71 246.00,243.45
             223.05,257.02 204.17,275.98 176.00,277.91
             154.05,279.42 124.44,267.02 111.57,248.99
             103.99,238.37 99.81,221.03 89.00,213.96
             81.13,208.82 69.27,206.81 60.00,206.00
             53.22,205.41 43.96,204.84 39.65,198.96
             37.92,196.60 37.07,193.92 37.09,191.00
             37.13,181.61 46.45,179.75 54.00,180.04
             74.45,180.83 95.79,186.01 109.82,202.00
             118.36,211.74 121.93,224.73 128.10,234.00
             137.66,248.35 154.99,256.37 172.00,255.99
             198.17,255.39 219.38,235.06 241.00,222.61
             262.78,210.07 304.81,197.30 330.00,197.00
             330.00,197.00 361.00,197.00 361.00,197.00
             391.60,196.95 416.15,173.09 428.74,147.00
             433.03,138.13 435.92,125.87 435.92,116.00
             435.92,105.92 430.79,94.83 443.00,89.65 Z
           M 213.00,93.64
           C 221.20,92.00 227.12,95.00 227.89,104.00
             228.67,113.12 221.91,117.57 216.00,123.09
             206.02,132.40 196.05,141.59 187.17,152.00
             182.06,157.99 180.49,163.81 171.00,162.89
             159.26,161.74 158.54,146.29 163.48,138.00
             167.91,130.57 177.60,122.86 184.00,116.91
             191.75,109.70 203.47,97.23 213.00,93.64 Z
           M 81.00,114.53
           C 107.62,110.14 140.82,137.76 146.33,163.00
             149.44,177.22 148.86,195.90 162.00,205.36
             165.66,208.00 169.49,209.26 174.00,208.89
             182.03,208.24 188.48,200.89 197.00,204.03
             205.61,207.20 207.31,217.38 200.89,223.90
             194.66,230.22 180.81,234.42 172.00,233.91
             166.77,233.60 161.66,232.06 157.00,229.73
             137.43,219.95 133.49,202.43 128.88,183.00
             126.54,173.10 125.39,162.70 117.91,155.09
             111.11,148.17 102.40,143.19 93.00,140.90
             86.21,139.24 77.21,139.70 72.57,133.89
             66.05,125.73 72.49,117.26 81.00,114.53 Z
           M 515.00,168.61
           C 526.87,169.00 528.04,177.29 528.00,187.00
             527.89,212.97 517.96,238.82 498.99,256.91
             479.69,275.31 453.39,283.96 427.00,284.00
             413.74,284.02 410.12,283.66 397.00,281.98
             383.16,279.69 376.96,277.01 363.00,281.98
             354.39,285.45 345.12,293.22 340.27,301.00
             335.28,309.00 333.84,321.63 321.00,319.79
             311.57,318.43 311.05,309.60 312.67,302.00
             315.57,288.41 327.30,274.04 339.00,266.93
             355.56,256.84 365.59,256.97 384.00,257.00
             384.00,257.00 430.00,263.00 430.00,263.00
             447.00,262.80 465.88,256.29 479.00,245.54
             492.66,234.34 502.92,218.04 503.00,200.00
             503.06,186.97 496.51,171.04 515.00,168.61 Z
           M 75.00,287.42
           C 86.69,286.00 105.71,287.37 117.00,290.72
             128.27,294.07 146.72,301.55 158.00,300.91
             158.00,300.91 168.00,300.00 168.00,300.00
             171.03,299.97 175.26,299.74 177.96,301.17
             184.06,304.41 186.13,314.46 181.43,319.61
             176.21,325.34 166.08,325.08 159.00,325.00
             135.28,324.72 114.67,309.28 91.00,309.00
             81.53,308.89 67.03,310.74 59.00,315.97
             52.65,320.11 47.23,331.79 38.00,328.40
             27.54,324.56 30.94,311.80 35.79,305.00
             45.63,291.21 59.74,289.64 75.00,287.42 Z
           M 480.00,289.65
           C 487.05,288.19 507.34,287.87 512.90,292.43
             519.95,298.21 520.53,310.22 513.78,316.47
             508.98,320.92 501.33,322.21 495.00,321.96
             489.63,321.75 481.34,320.95 477.18,317.44
             468.37,310.00 468.82,294.46 480.00,289.65 Z
           M 397.00,313.52
           C 420.31,309.83 439.93,327.29 449.63,347.00
             449.63,347.00 462.32,378.00 462.32,378.00
             467.07,387.06 478.87,406.14 480.77,415.00
             481.13,418.20 481.04,422.67 480.77,426.00
             480.91,433.03 478.12,452.49 474.15,457.90
             471.80,461.10 467.90,463.20 464.00,463.79
             456.42,464.93 450.55,462.32 450.04,454.00
             449.22,440.39 458.79,431.33 458.65,421.00
             458.55,414.34 452.32,405.94 449.26,400.00
             449.26,400.00 432.74,362.00 432.74,362.00
             428.38,353.51 422.09,346.65 414.00,341.56
             411.09,339.72 406.51,337.38 403.00,338.20
             394.99,340.06 387.69,351.03 378.05,345.83
             372.11,342.62 372.35,335.36 374.80,330.00
             379.07,320.64 387.43,316.09 397.00,313.52 Z
           M 287.00,315.46
           C 301.71,314.71 311.80,320.18 324.00,327.61
             330.98,331.87 341.33,339.24 346.96,345.01
             351.14,349.30 354.16,354.08 357.50,359.00
             368.00,374.46 375.97,392.00 376.00,411.00
             376.00,411.00 376.00,453.00 376.00,453.00
             376.02,464.08 378.66,475.06 388.04,482.06
             394.72,487.06 412.67,490.08 409.44,503.00
             408.63,506.24 406.73,508.98 403.91,510.77
             393.83,517.19 377.26,507.16 370.17,499.91
             359.27,488.76 356.28,477.91 354.83,463.00
             354.40,458.50 353.90,456.87 354.01,452.00
             354.01,452.00 355.00,438.00 355.00,438.00
             355.00,438.00 355.00,412.00 355.00,412.00
             354.95,380.27 327.14,348.19 297.00,340.48
             289.99,338.69 285.11,338.92 278.00,339.00
             266.11,339.14 248.21,346.32 237.00,350.80
             214.33,359.87 180.88,373.08 163.00,389.17
             143.20,406.99 135.17,424.77 133.51,451.00
             133.29,454.55 134.13,459.71 135.48,463.00
             141.73,478.24 159.33,469.24 158.95,488.00
             158.91,489.67 158.70,491.40 158.15,492.83
             153.76,505.57 137.02,498.47 130.00,492.83
             114.92,480.23 111.79,465.64 112.00,447.00
             112.40,412.81 132.79,383.09 161.00,364.94
             180.41,352.45 198.20,346.84 219.00,338.00
             243.32,327.66 260.21,318.85 287.00,315.46 Z
           M 191.00,384.56
           C 198.85,383.21 206.82,385.78 214.00,388.87
             219.13,391.08 224.81,394.49 229.00,398.18
             251.07,417.68 246.80,448.03 238.49,473.00
             238.49,473.00 229.67,496.00 229.67,496.00
             224.34,512.19 225.12,521.43 223.21,528.00
             221.98,532.28 219.86,537.00 214.98,537.76
             212.32,538.18 209.31,537.43 207.04,535.99
             199.17,531.00 201.08,520.74 201.95,513.00
             205.29,483.21 222.27,470.32 224.68,438.00
             224.90,435.07 224.30,431.82 223.51,429.00
             220.17,417.14 210.95,413.39 200.00,411.20
             194.24,410.05 186.77,409.41 182.80,404.67
             175.78,396.28 182.36,387.58 191.00,384.56 Z
           M 295.00,410.00
           C 295.00,410.00 311.00,410.00 311.00,410.00
             312.37,416.23 316.31,417.36 316.89,424.00
             317.13,426.68 316.73,430.55 315.57,432.99
             314.35,435.55 312.44,437.34 310.00,438.72
             299.15,444.88 289.74,437.69 288.68,426.00
             288.19,420.64 287.36,413.76 294.00,413.00
             294.00,413.00 295.00,410.00 295.00,410.00 Z" />
     <path id="blue"
        fill="#2cc7f5" stroke="none" stroke-width="1"
        d="M 375.00,128.57
           C 383.06,127.92 387.61,133.24 387.96,141.00
             388.62,155.40 379.65,179.29 364.00,182.61
             357.82,183.93 348.64,180.61 349.28,173.00
             349.75,167.34 355.58,164.36 359.03,159.00
             367.67,145.61 361.29,132.78 375.00,128.57 Z
           M 458.00,204.56
           C 469.12,202.71 473.66,209.72 470.70,220.00
             468.49,227.66 459.72,236.81 452.00,239.00
             444.31,241.18 435.68,234.14 437.57,226.00
             439.17,219.13 451.28,206.93 458.00,204.56 Z
           M 44.00,229.53
           C 52.62,228.12 59.68,230.18 64.39,238.00
             69.02,245.70 67.95,258.22 58.00,260.94
             53.26,262.24 47.03,261.75 43.10,258.57
             40.42,256.40 38.73,253.06 37.26,250.00
             32.75,240.62 32.67,233.17 44.00,229.53 Z
           M 264.00,262.57
           C 278.02,260.38 280.41,274.01 272.66,282.91
             272.66,282.91 239.00,308.28 239.00,308.28
             234.27,311.97 223.45,320.77 218.00,321.90
             206.47,324.30 204.33,308.10 209.80,301.30
             212.08,298.47 219.66,293.61 223.00,291.34
             223.00,291.34 248.00,274.48 248.00,274.48
             253.69,270.64 257.77,265.00 264.00,262.57 Z
           M 505.00,335.64
           C 508.37,335.01 514.83,334.47 517.90,335.64
             524.33,338.74 524.08,348.16 519.72,352.79
             513.72,359.17 503.15,360.04 495.00,360.00
             480.26,359.92 477.95,348.08 483.31,342.22
             487.76,337.36 498.70,336.38 505.00,335.64 Z
           M 57.00,341.57
           C 61.69,340.72 68.87,340.35 70.57,346.10
             72.63,353.05 66.64,357.17 64.81,363.00
             63.37,366.97 63.83,379.83 64.81,384.00
             67.01,391.97 70.78,397.42 77.00,402.79
             80.73,406.02 87.72,409.41 89.40,414.01
             91.62,420.09 86.95,427.49 81.00,429.35
             70.51,432.64 62.09,422.25 56.50,415.00
             45.03,400.11 37.40,376.36 44.23,358.00
             46.81,351.07 49.75,344.43 57.00,341.57 Z
           M 101.00,351.47
           C 105.88,350.83 110.10,351.19 113.57,355.21
             117.82,360.13 116.19,371.15 111.61,375.43
             109.81,377.12 107.39,378.05 105.00,378.52
             92.43,380.97 85.98,365.46 92.72,356.11
             94.97,352.99 97.50,352.33 101.00,351.47 Z
           M 275.00,380.00
           C 263.97,382.99 260.24,370.91 266.23,366.11
             268.40,364.36 272.31,362.83 275.00,362.04
             277.70,361.25 279.20,361.07 282.00,361.02
             285.35,360.95 288.93,361.00 291.79,363.01
             297.21,366.81 301.63,385.18 304.09,392.00
             306.31,398.17 310.28,406.45 310.00,413.00
             297.91,409.79 298.76,411.26 289.00,418.00
             289.00,418.00 275.00,380.00 275.00,380.00 Z
           M 404.00,368.64
           C 408.87,367.67 414.94,367.91 418.28,372.22
             423.70,379.23 419.74,394.77 411.00,397.28
             393.08,402.43 388.93,380.96 397.39,372.39
             399.40,370.36 401.43,369.61 404.00,368.64 Z
           M 173.00,437.64
           C 177.52,436.73 184.00,436.24 187.73,439.51
             193.95,444.97 192.84,460.18 186.67,465.35
             183.69,467.85 179.74,468.17 176.00,467.96
             167.24,467.46 161.27,457.29 162.20,449.00
             162.92,442.55 167.43,439.74 173.00,437.64 Z
           M 307.00,439.00
           C 307.00,439.00 308.00,439.00 308.00,439.00
             308.00,439.00 307.00,440.00 307.00,440.00
             307.00,440.00 307.00,439.00 307.00,439.00 Z
           M 284.00,473.77
           C 287.50,474.05 290.14,474.67 291.98,478.06
             293.73,481.27 292.99,497.38 293.00,502.00
             293.01,505.05 292.71,508.20 294.60,510.82
             297.39,514.68 304.52,516.74 308.57,522.04
             313.38,528.33 310.61,540.47 298.00,540.36
             291.90,540.31 286.79,534.98 282.83,530.91
             279.63,527.62 274.65,522.97 272.57,519.00
             269.47,513.08 270.67,500.61 271.58,494.00
             272.84,484.77 272.48,475.45 284.00,473.77 Z" />
  <path id="bg"
        fill="#022336" stroke="none" stroke-width="1"
        d="M 263.00,0.21
           C 263.00,0.21 293.00,0.21 293.00,0.21
             293.00,0.21 303.00,0.91 303.00,0.91
             323.89,2.37 344.97,5.55 365.00,11.81
             436.96,34.30 498.22,82.15 535.67,148.00
             556.00,183.76 568.94,234.89 569.00,276.00
             569.00,276.00 569.92,289.00 569.92,289.00
             569.92,289.00 569.00,301.00 569.00,301.00
             569.00,301.00 569.00,305.00 569.00,305.00
             569.00,305.00 567.13,323.00 567.13,323.00
             563.26,350.85 557.48,375.25 545.69,401.00
             521.80,453.18 483.17,495.30 433.00,523.14
             403.44,539.54 369.15,549.49 336.00,555.25
             324.20,557.30 308.84,559.98 297.00,560.00
             297.00,560.00 274.00,560.00 274.00,560.00
             274.00,560.00 264.00,559.09 264.00,559.09
             236.38,557.16 209.04,552.49 183.00,542.81
             183.00,542.81 174.00,539.83 174.00,539.83
             148.67,530.03 119.57,512.34 99.00,494.70
             99.00,494.70 87.04,483.09 87.04,483.09
             64.05,460.87 43.83,435.69 29.44,407.00
             8.15,364.58 -0.07,322.11 0.00,275.00
             0.02,260.85 3.32,232.90 6.42,219.00
             12.30,192.73 24.81,162.29 38.23,139.00
             63.47,95.19 108.33,53.82 153.00,30.32
             167.48,22.70 183.40,16.88 199.00,12.02
             215.18,7.00 235.14,3.31 252.00,1.28
             252.00,1.28 263.00,0.21 263.00,0.21 Z
           M 328.00,22.36
           C 320.02,24.63 318.10,29.23 318.00,37.00
             317.70,61.99 320.28,81.51 313.29,106.00
             310.22,116.76 305.52,128.68 296.00,135.35
             289.30,140.05 277.97,142.12 270.00,143.61
             257.91,145.88 245.92,148.76 236.00,156.53
             230.47,160.86 225.95,167.69 226.20,175.00
             226.37,180.13 230.49,185.83 236.00,185.71
             244.21,185.52 249.17,175.42 260.00,171.23
             271.72,166.70 283.13,165.63 296.00,159.19
             324.02,145.18 330.42,123.60 335.58,95.00
             335.58,95.00 339.09,60.00 339.09,60.00
             339.09,60.00 341.00,35.00 341.00,35.00
             340.88,26.48 336.87,21.77 328.00,22.36 Z
           M 240.00,23.43
           C 228.00,28.20 231.84,41.55 235.22,51.00
             236.54,54.70 238.65,60.74 240.53,64.00
             245.73,73.06 257.34,83.48 266.00,89.33
             271.35,92.94 279.27,98.03 286.00,95.99
             293.67,93.67 296.73,83.85 293.31,77.00
             288.03,66.41 275.40,65.64 267.21,57.68
             254.46,45.27 263.44,19.93 240.00,23.43 Z
           M 160.00,46.33
           C 157.81,46.85 156.02,47.28 154.02,48.41
             143.15,54.56 148.60,66.72 150.39,76.00
             152.14,85.10 154.65,96.29 167.00,93.60
             176.11,91.62 178.38,81.86 179.75,74.00
             181.48,64.07 183.36,48.74 170.00,46.33
             166.81,45.75 163.21,45.97 160.00,46.33 Z
           M 388.00,46.31
           C 371.73,50.39 378.50,64.49 377.47,76.00
             376.87,82.74 373.51,88.70 375.43,96.00
             377.17,102.64 384.27,107.07 391.00,105.60
             399.94,103.65 402.13,91.65 403.88,84.00
             403.88,84.00 405.74,75.00 405.74,75.00
             408.50,63.66 412.76,48.92 396.00,46.31
             393.15,45.86 390.83,46.01 388.00,46.31 Z
           M 446.00,89.33
           C 439.93,90.84 436.43,93.51 435.33,100.00
             435.33,100.00 436.00,118.00 436.00,118.00
             435.98,132.18 432.22,141.65 425.74,154.00
             412.69,178.87 386.59,197.96 358.00,198.00
             358.00,198.00 339.00,197.04 339.00,197.04
             339.00,197.04 331.00,198.04 331.00,198.04
             331.00,198.04 323.00,198.04 323.00,198.04
             296.08,200.74 265.62,209.68 242.00,222.86
             222.08,233.97 193.83,258.51 170.00,256.82
             152.84,255.60 136.94,248.78 127.10,234.00
             121.44,225.50 118.00,212.88 110.67,204.00
             98.20,188.89 77.26,181.23 58.00,181.00
             49.59,180.91 37.54,179.84 38.07,192.00
             38.15,193.85 38.45,195.34 39.31,197.00
             43.00,204.05 50.02,204.27 57.00,205.05
             67.49,206.22 78.69,207.12 88.00,212.53
             100.17,219.59 102.86,234.95 110.10,246.00
             121.02,262.68 147.02,276.76 167.00,277.00
             176.13,277.10 183.10,276.90 192.00,274.23
             209.60,268.95 223.04,257.28 238.00,247.36
             248.30,240.52 262.32,233.85 274.00,229.69
             291.67,223.40 319.28,218.03 338.00,218.00
             338.00,218.00 354.00,218.00 354.00,218.00
             374.02,217.97 398.50,210.76 414.00,197.86
             439.03,177.02 453.37,153.05 458.72,121.00
             460.66,109.34 464.14,87.76 446.00,89.33 Z
           M 216.00,93.43
           C 208.51,94.96 203.55,99.81 198.01,104.72
             189.96,111.85 168.43,130.22 163.95,138.00
             156.63,150.71 164.36,164.04 174.00,162.62
             180.22,161.70 185.45,152.65 189.43,148.00
             189.43,148.00 215.00,123.01 215.00,123.01
             218.12,119.97 222.62,116.57 224.85,112.99
             229.87,104.94 226.48,93.91 216.00,93.43 Z
           M 80.00,115.20
           C 72.19,117.97 67.32,126.97 73.39,133.87
             77.91,139.00 87.48,138.95 94.00,140.63
             102.70,142.86 112.65,148.56 118.82,155.09
             126.04,162.73 127.38,174.10 129.65,184.00
             134.03,203.08 138.33,219.27 157.00,229.11
             161.71,231.59 166.69,232.86 172.00,232.99
             181.18,233.20 193.19,230.42 199.89,223.82
             205.44,218.35 205.09,208.96 197.96,205.17
             190.87,201.41 183.45,207.41 177.00,209.21
             168.63,211.55 160.42,206.68 155.64,200.00
             147.08,188.06 149.01,172.19 144.64,159.00
             137.70,138.01 110.67,115.10 88.00,115.20
             88.00,115.20 80.00,115.20 80.00,115.20 Z
           M 377.00,129.51
           C 361.76,131.54 369.11,145.71 360.15,159.00
             356.42,164.53 350.46,166.81 350.19,173.00
             349.91,179.20 355.55,182.05 361.00,181.95
             376.51,181.65 384.84,161.03 386.70,148.00
             387.89,139.68 386.96,130.86 377.00,129.51 Z
           M 513.00,169.33
           C 498.18,173.01 503.87,185.22 504.00,196.00
             504.22,215.20 494.81,233.40 480.00,245.54
             466.79,256.37 450.89,261.76 434.00,263.08
             434.00,263.08 427.00,263.63 427.00,263.63
             427.00,263.63 379.00,257.00 379.00,257.00
             365.18,256.98 353.04,259.28 341.00,266.45
             328.19,274.09 317.03,286.14 313.50,301.00
             311.82,308.09 311.79,317.79 321.01,319.38
             333.70,321.57 335.85,305.38 341.53,298.00
             351.91,284.50 363.27,278.92 380.00,279.00
             380.00,279.00 407.00,282.57 407.00,282.57
             407.00,282.57 416.00,283.17 416.00,283.17
             419.16,283.47 420.58,284.06 424.00,283.82
             453.24,281.74 476.98,277.82 498.91,255.91
             516.36,238.49 525.13,218.41 526.91,194.00
             526.91,194.00 527.74,183.00 527.74,183.00
             527.39,174.22 521.91,168.57 513.00,169.33 Z
           M 458.00,205.43
           C 452.17,207.72 441.39,218.15 438.99,224.09
             436.35,230.65 441.37,237.42 448.00,238.57
             457.14,240.14 468.71,226.03 470.47,218.00
             472.47,208.86 466.75,204.13 458.00,205.43 Z
           M 45.83,230.43
           C 24.97,234.02 39.40,262.48 55.00,260.80
             64.88,259.74 68.27,249.31 64.64,241.04
             60.96,232.66 54.57,229.72 45.83,230.43 Z
           M 264.00,263.51
           C 259.19,265.56 252.10,272.45 247.00,275.91
             247.00,275.91 222.00,293.00 222.00,293.00
             219.21,294.97 212.57,299.21 210.65,301.47
             204.14,309.12 208.36,322.91 218.00,321.03
             221.99,320.25 230.34,313.60 234.00,311.00
             234.00,311.00 260.00,292.13 260.00,292.13
             263.32,289.64 270.20,284.80 272.61,281.91
             279.60,273.52 276.44,261.60 264.00,263.51 Z
           M 72.00,288.28
           C 57.92,290.32 44.39,293.23 35.76,306.00
             31.16,312.81 28.73,325.11 39.00,328.23
             46.88,330.63 52.64,319.45 58.01,315.65
             63.48,311.78 83.22,307.82 90.00,308.32
             105.00,309.45 112.03,311.97 126.00,316.67
             135.34,319.81 146.08,323.88 156.00,324.00
             163.16,324.08 175.22,325.27 180.43,319.61
             185.26,314.36 184.16,299.11 169.00,300.28
             161.32,300.73 153.69,301.77 146.00,300.28
             146.00,300.28 112.00,290.01 112.00,290.01
             101.88,287.82 82.38,287.32 72.00,288.28 Z
           M 483.00,289.34
           C 470.91,292.61 468.12,307.35 476.33,315.79
             480.60,320.18 487.17,320.93 493.00,321.00
             499.01,321.07 505.68,321.32 510.98,318.00
             519.42,312.72 520.31,299.35 512.61,292.85
             507.26,288.33 489.91,288.54 483.00,289.34 Z
           M 400.00,313.30
           C 388.52,315.54 372.77,324.34 374.11,338.00
             374.25,339.43 374.49,340.68 375.17,341.96
             380.97,352.84 392.46,342.49 399.00,338.88
             401.34,337.59 403.26,336.64 406.00,337.17
             415.78,339.09 428.83,352.36 433.19,361.00
             433.19,361.00 449.26,399.00 449.26,399.00
             452.71,405.69 459.10,413.52 459.12,421.00
             459.16,430.84 450.98,440.77 450.19,451.00
             449.62,458.26 454.34,464.41 462.00,463.66
             478.01,462.10 478.65,443.54 480.19,431.00
             480.65,425.59 481.49,423.62 480.19,418.00
             477.51,404.24 467.54,389.71 460.89,377.00
             460.89,377.00 448.19,346.00 448.19,346.00
             439.73,328.98 420.24,311.34 400.00,313.30 Z
           M 283.00,316.29
           C 258.41,320.35 236.62,330.68 214.00,340.69
             214.00,340.69 175.00,357.31 175.00,357.31
             141.53,375.57 113.06,404.65 113.00,445.00
             112.97,465.58 113.59,478.41 131.00,492.53
             136.75,497.20 148.13,502.47 154.77,496.57
             156.85,494.73 157.61,492.69 157.85,490.00
             158.03,488.72 157.98,486.28 157.85,485.00
             156.02,471.40 143.75,476.23 137.64,468.81
             132.85,463.01 132.92,455.08 133.00,448.00
             133.09,440.75 134.74,433.85 137.00,427.00
             151.57,382.91 192.09,368.89 231.00,352.58
             251.10,344.15 273.91,334.56 296.00,339.51
             302.30,340.92 309.33,344.23 315.00,347.31
             320.89,350.50 325.20,353.19 329.87,358.08
             344.85,373.73 355.97,392.80 356.00,415.00
             356.04,439.36 350.35,466.73 362.64,489.00
             367.73,498.21 380.50,509.38 391.00,511.61
             399.61,513.45 410.14,509.65 408.74,499.00
             407.19,487.31 390.25,488.93 381.80,477.00
             371.67,462.70 375.98,444.98 376.00,429.00
             376.02,417.52 375.83,404.17 373.10,393.00
             369.78,379.40 355.70,354.79 345.96,345.04
             341.52,340.60 334.23,335.26 329.00,331.59
             314.60,321.50 300.96,314.59 283.00,316.29 Z
           M 486.00,356.00
           C 488.10,359.15 490.29,359.37 494.00,359.68
             502.52,360.37 520.81,356.40 521.85,346.00
             522.04,344.09 521.76,341.80 520.83,340.10
             517.08,333.34 509.12,335.51 503.00,336.42
             495.53,337.53 479.99,339.15 481.38,350.00
             481.68,352.32 483.01,354.89 484.00,357.00
             484.00,357.00 486.00,356.00 486.00,356.00 Z
           M 62.00,341.65
           C 47.64,343.28 43.22,359.62 42.74,372.00
             42.10,389.01 48.57,405.42 59.95,417.99
             64.44,422.94 69.76,428.94 77.00,428.91
             84.35,428.89 91.07,421.81 88.51,414.30
             86.73,409.06 77.47,405.88 70.27,397.00
             63.58,388.76 60.92,373.12 63.94,363.00
             65.53,357.68 68.47,356.21 69.57,352.00
             71.24,345.62 68.00,342.49 62.00,341.65 Z
           M 104.00,352.38
           C 98.80,353.00 94.79,353.87 92.17,359.00
             88.18,366.84 93.84,378.05 103.00,377.86
             117.58,377.57 120.89,352.95 104.00,352.38 Z
           M 275.00,379.00
           C 275.00,379.00 286.00,407.00 286.00,407.00
             286.92,409.35 289.32,414.83 289.62,417.09
             289.61,419.74 288.18,424.46 289.62,430.00
             294.11,444.93 312.60,441.71 315.44,431.00
             318.70,418.73 310.83,415.71 308.31,410.08
             308.31,410.08 306.55,402.00 306.55,402.00
             306.55,402.00 297.83,376.00 297.83,376.00
             296.40,371.85 294.65,366.32 290.90,363.74
             288.05,361.79 284.31,361.93 281.00,362.01
             276.09,362.13 268.61,363.92 265.60,368.13
             262.63,372.29 264.57,381.41 275.00,379.00 Z
           M 405.00,369.33
           C 387.88,373.60 391.62,399.49 409.00,396.79
             418.78,395.27 423.29,380.50 417.35,373.21
             414.05,369.16 409.79,368.84 405.00,369.33 Z
           M 190.00,385.51
           C 181.52,388.93 177.03,398.51 184.34,405.29
             192.16,412.55 208.40,407.65 218.67,419.09
             227.09,428.46 225.57,439.63 223.39,451.00
             219.10,473.36 202.31,492.80 202.00,519.00
             201.96,522.79 201.66,527.55 203.45,530.96
             206.31,536.39 214.59,539.46 219.36,534.57
             222.68,531.18 223.09,525.46 223.73,521.00
             225.34,509.85 225.24,508.20 228.59,497.00
             228.59,497.00 236.14,478.00 236.14,478.00
             245.20,452.49 252.07,419.71 229.00,399.18
             225.13,395.75 218.74,391.79 214.00,389.67
             205.96,386.07 198.84,383.95 190.00,385.51 Z
           M 175.00,438.33
           C 170.28,439.46 165.87,441.17 163.85,446.02
             160.52,454.03 167.28,466.25 176.00,466.94
             192.80,468.28 194.13,446.61 186.79,440.51
             183.41,437.71 179.09,437.89 175.00,438.33 Z
           M 283.00,474.40
           C 273.10,477.06 273.39,485.49 272.28,494.00
             271.31,501.47 269.55,512.07 273.10,518.99
             275.08,522.86 281.64,529.17 285.01,532.13
             289.03,535.65 294.24,540.34 300.00,539.63
             308.82,538.54 312.62,528.47 307.43,522.21
             304.27,518.40 295.74,514.31 293.93,511.73
             292.14,509.17 292.04,505.02 292.00,502.00
             291.95,497.18 292.80,481.60 290.83,478.19
             288.94,474.94 286.41,474.42 283.00,474.40 Z" />
</svg>
